<svg xmlns="http://www.w3.org/2000/svg" viewBox="0 0 512 640" x="0px" y="0px">
    <path d="M506.38,305.62c-.15-4.36-3.08-39.41-2.51-50.62.94-18.48-2-39.58-8.24-60.84.66.08,1.34.14,2.04.17a31.48,31.48,0,0,0,3.82-.04,3.469,3.469,0,0,0,1.32-6.53c-4.39-2.33-7.89-5.98-13.25-11.58-.2-.54-.41-1.07-.61-1.6.19-.02.39-.03.57-.06a5.481,5.481,0,0,0,3.33-8.95c-4.04-4.83-7.8-6.74-14.06-13.58C463.56,122.31,442.06,95.85,416,80.33c9.33-4.16-1.17-10.66-8.33-11.83-4.51-.73-8.62-1.56-12.79-2.6,4.33-2.91,6.21-6.16,3.12-7.78-2.67-1.39-11.47,2.99-25.23.74a21.226,21.226,0,0,1-3.78-1.4c5.68-3.79,4.3-8.55-4.66-7.72-6.33.59-20.28-1.61-36.86-2.69-.1-.02-.21-.04-.31-.05-14.2-2.3-34.64-3.98-56.48-4.57,21.05,5.09,40.05,12.69,55.01,22.29.96.62,1.97,1.27,3.02,1.95,7.18,4.66,16.1,10.45,23.36,12.88,8.01,2.68,22.91,7.67,25.55,19.18a15.466,15.466,0,0,1-.07,7.16c6.96,3.77,16.55,10.31,23.23,21.15,3.88,6.31,2.84,10.95,1.29,13.73q-.225.4-.54.87c15.74,15.26,20.73,24.66,18.09,32.78a12.739,12.739,0,0,1-3.38,5.33c.31.87.63,1.76.95,2.65,4.12,11.37,8.37,23.12,10.91,35.72,5.73,28.39,7.89,52.71,6.4,72.28a133.5,133.5,0,0,0,2.2,37.11c2.49,11.95.77,15.69.12,17.09-3.7,8.03-9.59,9.23-12.76,9.23a12.263,12.263,0,0,1-1.36-.07c-.28,3.32-.69,6.4-1.05,9.06-.28,2.06-.66,4.87-.64,5.84a13.323,13.323,0,0,1-2.8,10.77,12.049,12.049,0,0,1-9.2,4.17,13.78,13.78,0,0,1-3.61-.49c-8.81,16.13-18.85,32.22-31.55,45.38-15.18,15.72-33,26.29-56.1,33.27-.98.3-1.92.61-2.82.94,23.95-2.28,51.55-5.18,73.11-12.98a2.741,2.741,0,0,0-.05.28,5.055,5.055,0,0,0,8.77,4.19c9.33-10.71,27.56-17.47,30.82-23.96-4.08,10.65,6.67,7.89,10.17,2.02,2.83-4.77,10.16-15.88,21.08-31.09,0,0,9.13-12.53,12.77-17.76,7.11-10.23,10.3-21.84,14.07-34.4.85,1.24,6.21,5.75,9.16,2,2.13-2.7-.3-9.02-2.1-13.04a.845.845,0,0,1,1.14-1.1c4.05,1.91,9.52.35,9.05-3.69-.45-3.83-3.08-15.63-3.92-19.34.97.73,2.38,2.79,6,2.05C507.74,315.31,506.62,313,506.38,305.62Z"/>
    <path d="M402.446,369.52c3.554,6.813,10.639,6.624,9.639.332-.643-4.045,2.975-17.134,1.65-28.994a1.349,1.349,0,0,1,2.307-1.081c6.542,6.731,10.147,6.39,12.607,1.056.686-1.488.383-6.022-.756-11.49a141.778,141.778,0,0,1-2.363-39.624c1.078-14.249.5-36.367-6.249-69.824-3.186-15.794-9.422-30.766-14.289-44.937,20.941-1.9-16.733-33.3-22.644-38.636-.659-.595,17.048,5.647,10.763-4.561-9.759-15.854-27.246-20.973-28.177-22.066,12.153-11.865-5.863-18.314-15.721-21.615C339.725,84.9,328.7,77.345,320.83,72.3,279.638,45.876,214.38,40.116,176.7,46.442,132.739,53.821,87.91,83.212,76.667,93c-1.334-7.5-8.049-2.454-11.373,2.928-5.183,8.391-6.326,15.224-7.43,23.835-.859-7.629-4.222-12.024-7.551-12.068-6.15-.081-8.147,7.254-9.674,14.41-1.619,7.582-1.8,11.512,2.347,25.168.327,1.077-5.313-14.822-12.23-11.805-6.3,2.747-3.557,18.086-3.539,19.184-15.654-6.667-11.872,22.651-11.839,24.111.349,15.166-3.076,19.361-6.925,39.287-1.968,10.192-7.121,30.64-1.29,61.774a176.083,176.083,0,0,0,8.729,30.226,1.976,1.976,0,0,1-1.515,2.687c-4,.549-6.171,4.848-3.384,9.539a25.085,25.085,0,0,0,10.375,9.182.462.462,0,0,1-.22.877c-12.49.037-3.977,18.684,8.451,26.518-5.733.3-10.974,5.125,4.418,15.426a80.407,80.407,0,0,1,17.972,16.44c11.736,14.6,33.8,35.059,47.237,42.808,32.465,21.333,64.1,28.687,106.286,31.9a74.568,74.568,0,0,0,13.089-.338c-5.684,6.328-.2,8.814,5.961,6.224,8.119-3.416,11.811-4.93,23.265-5.267-8.16,11.621,18.671,3.982,23.006.621-2.676,5.632,7.46,7.578,17.5,1.166,8.656-5.527,14.987-11.115,26.815-14.689C360.381,439.477,380.1,412.262,402.446,369.52Zm-53.2-102.463a4.5,4.5,0,0,1-5.965-2.217,19.476,19.476,0,0,0-6.026-7.76,4.5,4.5,0,1,1,5.33-7.252,28.331,28.331,0,0,1,8.878,11.264A4.5,4.5,0,0,1,349.244,267.057Zm-6.774-43.624a29.068,29.068,0,0,1,9.106,11.555,4.5,4.5,0,1,1-8.183,3.748,20.2,20.2,0,0,0-6.254-8.051,4.5,4.5,0,0,1,5.331-7.252ZM230.593,111.064c7.477-6.326,18.243-7.494,18.7-7.541a4.5,4.5,0,1,1,.918,8.954c-.074.007-8.482.957-13.8,5.459a4.5,4.5,0,0,1-5.814-6.872Zm6.193,139.573c4.842-13.587,2.391-28.991-7.088-44.548a4.5,4.5,0,0,1,7.686-4.684c13.82,22.682,11.913,40.935,7.879,52.253-5.673,15.918-18.491,26.667-28.679,30.258a4.5,4.5,0,1,1-2.992-8.488C221.5,272.64,232.133,263.693,236.786,250.637Zm-28.969-21.78c5.844,6.613,5.484,15.305-.918,22.146a4.5,4.5,0,0,1-6.571-6.15c3.281-3.506,3.532-6.882.745-10.036-2.58-2.92-6.168-3.671-7.132-2.974a4.5,4.5,0,0,1-5.3-7.278C194.428,220.358,203.1,223.518,207.817,228.857Zm-12.212-57.471A4.49,4.49,0,0,1,201.792,170c.323.2,7.933,5.1,10.659,13.6a4.5,4.5,0,1,1-8.569,2.75c-1.712-5.334-6.87-8.721-6.922-8.755A4.51,4.51,0,0,1,195.605,171.386Zm-5.848,75.166a4.5,4.5,0,1,1-1.357,8.9c-10.436-1.591-12.756-12.97-12.525-18.765a4.5,4.5,0,0,1,8.994.359C184.866,237.111,184.653,245.773,189.757,246.552ZM185.2,185.915a4.5,4.5,0,0,1-6.163-1.585c-4.132-6.994-9.332-5.4-9.383-5.38a4.5,4.5,0,1,1-2.789-8.556c4.174-1.362,13.709-1.155,19.921,9.358A4.5,4.5,0,0,1,185.2,185.915Zm-19.115,69.2a4.5,4.5,0,0,1,8.826,1.766c-3.078,15.385,21.774,20.912,22.026,20.966a4.5,4.5,0,1,1-1.872,8.8C183.358,284.172,162.233,274.389,166.087,255.117Zm26.607,80.425c8.622-.491,14.535-8.011,14.593-8.087a4.5,4.5,0,0,1,7.18,5.426c-.336.445-8.388,10.913-21.26,11.647-.087,0-.174.007-.26.007a4.5,4.5,0,0,1-.253-8.993ZM111.515,139.965a4.5,4.5,0,0,1,8.175,3.764c-.99,2.159-1.973,5.842-1.231,11.335a4.5,4.5,0,1,1-8.918,1.206C108.538,148.846,109.884,143.492,111.515,139.965Zm-13.709,12.71a4.5,4.5,0,0,1,6.722,5.984c-1.131,1.289-2.417,7.751-2.7,13.558a4.5,4.5,0,0,1-4.491,4.282c-.073,0-.146,0-.22,0a4.5,4.5,0,0,1-4.278-4.709C93,168.431,93.831,157.139,97.806,152.675ZM59.614,294.536A99.068,99.068,0,0,1,56.8,279.672c-.082-.774-.165-1.587-.251-2.431-.6-5.892-1.346-13.225-3.226-18.317-2.607-7.059-5.046-15.023-.965-20.188a9.01,9.01,0,0,1,4.425-3c-1.061-5.088-2.042-13.34.994-21.865,1.577-4.425,4.214-5.465,6.148-5.558a5.984,5.984,0,0,1,1.238.067c1.243-15.219,3.815-21.894,8.787-23.773,1.756-.662,5.283-1.169,9.2,2.889a4.5,4.5,0,0,1-6.294,6.428c-1,2.191-2.547,8.065-3.237,23.714-.032.74-.059,1.343-.084,1.774a4.533,4.533,0,0,1-3.648,4.183,4.336,4.336,0,0,1-4.769-2.249c-1.1,6.678.468,12.736,1.212,15.621a7.848,7.848,0,0,1,.416,3.659,4.508,4.508,0,0,1-4.962,3.624,4.338,4.338,0,0,0-2.4.112c-.326.5-.842,2.7,2.39,11.449,2.275,6.163,3.086,14.125,3.737,20.523.084.828.165,1.626.247,2.385a89.871,89.871,0,0,0,2.562,13.505,4.5,4.5,0,1,1-8.7,2.316Zm20.3,29.715a4.485,4.485,0,0,1-.708-.057,38.257,38.257,0,0,1-12.3-4.807,4.5,4.5,0,1,1,4.535-7.774,30.737,30.737,0,0,0,9.2,3.7,4.5,4.5,0,0,1-.724,8.941Zm5.544,28.343a4.5,4.5,0,0,1,5.235-7.321c7.281,5.207,11.856,4.129,11.9,4.114a4.5,4.5,0,0,1,3.165,8.426,13.205,13.205,0,0,1-4.45.663C97.706,358.476,92.178,357.4,85.453,352.594Zm16.467,17.065a4.5,4.5,0,0,1,4.493-7.8c9.641,5.555,15.713,3.723,15.967,3.641a4.462,4.462,0,0,1,5.724,2.709,4.534,4.534,0,0,1-2.734,5.779,18.44,18.44,0,0,1-6.028.866C115.205,374.855,109.18,373.842,101.92,369.659Zm47.3,19.34A36.943,36.943,0,0,1,140,390.11a31.892,31.892,0,0,1-14.112-3.078,4.5,4.5,0,1,1,3.986-8.068c7.722,3.813,16.831,1.391,16.921,1.367A4.5,4.5,0,0,1,149.218,389Zm2.394-64.72a4.5,4.5,0,0,1-6.3.929c-27.64-20.54-40.919-48.994-37.391-80.122,3.323-29.322,20.935-54.3,35.347-60.618a4.5,4.5,0,0,1,3.616,8.242c-10.575,4.639-26.89,25.773-30.02,53.39-2.23,19.672,1.827,48.113,33.816,71.883A4.5,4.5,0,0,1,151.612,324.279ZM134.682,134.4a4.5,4.5,0,1,1-5.092-7.421,92.2,92.2,0,0,0,19.125-17.327c4.947-6.01,7.373-6.616,8.17-6.815,3.239-.809,5.885-.334,7.861,1.415a7.431,7.431,0,0,1,2.029,3.008c2.384-1.7,4.754-3.135,6.722-4.323a36.484,36.484,0,0,0,3.68-2.383c2.932-3.237,6.655-3.15,9.028-1.615a7.378,7.378,0,0,1,3.069,4.435c7.372-1.348,13.374-2.2,18.957-2.7a4.5,4.5,0,1,1,.809,8.963,226.758,226.758,0,0,0-23.755,3.663,4.5,4.5,0,0,1-5.324-3.76c-.56.348-1.163.712-1.812,1.1-3.336,2.014-7.488,4.522-10.6,7.652a5.419,5.419,0,0,1-9.216-4.49c.072-.582.113-1.073.134-1.482a33.114,33.114,0,0,0-2.8,3.05A101.216,101.216,0,0,1,134.682,134.4Zm24.16,205.293A4.5,4.5,0,1,1,162,331.268c8.266,3.1,17.964-4.565,18.06-4.644a4.5,4.5,0,1,1,5.7,6.965c-.45.368-9.209,7.418-19.546,7.418A20.839,20.839,0,0,1,158.842,339.693Zm115.41,47.285c-4.464,2.357-7.876,3.9-10.618,5.138-4.84,2.187-7.77,3.511-12.361,7.365l-.22.21c-6.365,6.108-11.652,9.113-16.065,9.113a9.043,9.043,0,0,1-2.377-.312,8.4,8.4,0,0,1-2.936-1.462c-3.472,2.91-8.4,5.8-13.036,3.364a7.444,7.444,0,0,1-2.588-2.215,34.612,34.612,0,0,1-4.622,2.7c-2.406,1.211-6.374,3.21-10.252,3.21a8.592,8.592,0,0,1-7.108-3.446,7.469,7.469,0,0,1-1.384-2.855,35.881,35.881,0,0,1-7.169,1.61c-4.156.519-9.742-.261-11.808-4.151-.636-1.2-1.769-4.384,1.451-8.07a4.5,4.5,0,0,1,7.872,3.362,10.1,10.1,0,0,0,1.377-.072c5.728-.711,9.128-2.59,14.048-5.6a4.5,4.5,0,0,1,5.541,7.01,10.268,10.268,0,0,0-2.31,3.217c.852-.1,2.5-.647,5.694-2.253,3.968-2,5.6-3.067,10.683-10.514a4.505,4.505,0,0,1,7.6,4.831,21.119,21.119,0,0,0-1.911,4.51,26.507,26.507,0,0,0,5.013-4.267c.4-.406.677-.669.794-.766.01-.008.021-.013.031-.021a4.622,4.622,0,0,1,.46-.31c.1-.062.192-.137.294-.19s.2-.08.295-.123a4.663,4.663,0,0,1,.545-.214c.012,0,.021-.009.032-.012.086-.024.172-.026.259-.045a4.284,4.284,0,0,1,.583-.1c.126-.011.249,0,.374,0a4.3,4.3,0,0,1,.5.014c.132.014.258.047.386.073a4.363,4.363,0,0,1,.466.106c.122.038.235.093.353.141a4.541,4.541,0,0,1,.446.2c.12.065.228.146.341.221a2.913,2.913,0,0,1,.755.634c.073.076.155.137.222.219.009.01.014.022.022.032a4.446,4.446,0,0,1,.267.393c.076.117.162.228.226.35.049.093.082.2.125.3a4.546,4.546,0,0,1,.21.534c0,.018.015.034.021.053a4.024,4.024,0,0,0,.355.914c.709-.074,3.611-.758,9.7-6.6.3-.285.5-.472.59-.546,5.582-4.7,9.33-6.393,14.517-8.738,2.766-1.25,5.9-2.666,10.121-4.895a4.5,4.5,0,0,1,4.2,7.959Zm19.826-10a4.5,4.5,0,1,1-8.656-2.462c.7-2.463,1.685-7.27,1.366-9.676a4.5,4.5,0,1,1,8.921-1.186C296.378,368.688,294.315,376.147,294.078,376.981Zm3.067-118.169c-2.1,15.549-9.58,33.337-20.016,47.583-11.779,16.078-25.969,26.1-39.954,28.222a4.631,4.631,0,0,1-.68.052,4.5,4.5,0,0,1-.67-8.95c24.847-3.77,48.571-39.708,52.4-68.111a4.5,4.5,0,1,1,8.919,1.2Zm.462-110.714a4.51,4.51,0,0,1,.98-1.447c-2.332-2.059-6.018-4.5-7.426-4.932a4.483,4.483,0,0,1-2.449-7.155,12.572,12.572,0,0,0-4.747-2.746c-1.43-.482-2.814-.9-4.175-1.32-5.02-1.532-10.21-3.117-16.188-7.211a4.5,4.5,0,0,1,5.086-7.426c4.839,3.315,8.959,4.573,13.73,6.03,1.421.433,2.891.881,4.426,1.4,6.938,2.343,11.833,7.467,11.71,12.228,4.932,2.956,11.221,8.032,10.8,13a6.02,6.02,0,0,1-.643,2.208c2.438,2.313,4.409,3.379,7.919,5.278,4.275,2.311,6.4,6.048,5.424,9.518a6.049,6.049,0,0,1-.873,1.8c.647.808,1.331,1.717,2.026,2.731a241.544,241.544,0,0,1,13.8,22.348,4.5,4.5,0,1,1-7.934,4.25,232.607,232.607,0,0,0-13.29-21.51,38.848,38.848,0,0,0-4.588-5.487c-.433-.442-.749-.777-.929-.993a4.5,4.5,0,0,1,.076-5.843c-4.514-2.514-7.246-4.472-12.011-10.058A4.5,4.5,0,0,1,297.607,148.1Zm7.93,213.706a4.5,4.5,0,0,1-3.414-7.43,115.889,115.889,0,0,0,11.86-16.873,5.852,5.852,0,0,1,4.246-2.875,5.746,5.746,0,0,1,4.038.9,12.776,12.776,0,0,0,.261-6.836,4.816,4.816,0,0,1,8.2-4.364c1.4-1.78,3.378-6.9,2.771-12.182a4.5,4.5,0,0,1,6.392-4.583,28.078,28.078,0,0,0-.091-4.477,59.321,59.321,0,0,1,1.152-17.933,4.5,4.5,0,0,1,8.789,1.938,50.319,50.319,0,0,0-.975,15.214c.269,3.083,1.088,12.467-4.912,15.061a6.69,6.69,0,0,1-1.506.451c-.87,6.707-3.956,13.383-8.7,15.375a8.022,8.022,0,0,1-1.845.528,18.961,18.961,0,0,1-1.111,5,9.2,9.2,0,0,1-6.428,6.023,7.981,7.981,0,0,1-4.036-.118,123.68,123.68,0,0,1-11.264,15.614A4.492,4.492,0,0,1,305.537,361.8Z"/>
    <path d="M233.21,403.687c.1-.106.187-.193.249-.254a4.352,4.352,0,0,0,1.08-5.14c-.043-.1-.074-.2-.125-.3-.066-.125-.15-.233-.226-.35a4.608,4.608,0,0,0-.267-.393c-.074-.091-.163-.166-.244-.251a4.567,4.567,0,0,0-.378-.372c-.119-.1-.25-.177-.377-.262s-.223-.157-.341-.221a4.438,4.438,0,0,0-.446-.2c-.118-.048-.232-.1-.353-.141a4.5,4.5,0,0,0-.466-.106c-.128-.026-.255-.059-.386-.073a4.525,4.525,0,0,0-.5-.014c-.125,0-.25-.009-.374,0a4.4,4.4,0,0,0-.583.1c-.1.021-.2.029-.291.057a4.534,4.534,0,0,0-.545.214c-.1.043-.2.072-.295.123s-.2.128-.294.19a4.63,4.63,0,0,0-.46.31,4.5,4.5,0,0,0-1.488,4.7,10.514,10.514,0,0,0,3.57,5.715A47.751,47.751,0,0,0,233.21,403.687Z"/>
</svg>